<svg xmlns="http://www.w3.org/2000/svg" xmlns:xlink="http://www.w3.org/1999/xlink" width="600" height="400" viewBox="0 0 600 400">
  <defs>
    <rect id="bg-a" width="600" height="400"/>
    <linearGradient id="bg-d" x1="47.246%" x2="47.246%" y1="129.549%" y2="-1.354%">
      <stop offset="0%" stop-color="#241236" stop-opacity=".977"/>
      <stop offset="100%" stop-color="#301849"/>
    </linearGradient>
    <path id="bg-c" d="M463.893812,23.0606086 C413.782147,27.3923737 409.682585,25.0896733 380.424226,13.1499823 C360.754455,4.69874635 339.038967,0 316.205515,0 C247.90404,0 189.565071,41.9516065 166.311095,101.101723 C147.931074,145.005051 141.395076,151.221329 98.5444868,169.022585 C40.8379287,191.400437 0,246.759126 0,311.507307 C0,396.054871 69.6324103,464.593946 155.528676,464.593946 C178.036982,464.593946 199.424071,459.880797 218.73889,451.413026 C266.109565,431.827538 283.212301,428.254271 353.047386,471.470043 C392.016261,496.469038 438.550224,511 488.533456,511 C625.757979,511 737,401.504648 737,266.43476 C737,131.364872 625.757979,21.8695198 488.533456,21.8695198 C480.21782,21.8695198 471.999186,22.2749061 463.893812,23.0606086 Z"/>
    <linearGradient id="bg-f" x1="43.221%" x2="46.544%" y1="31.298%" y2="5.785%">
      <stop offset="0%" stop-color="#301849"/>
      <stop offset="100%" stop-color="#213"/>
    </linearGradient>
    <linearGradient id="bg-g" x1="23.47%" x2="26.374%" y1="30.766%" y2="11.211%">
      <stop offset="0%" stop-color="#639" stop-opacity="0"/>
      <stop offset="100%" stop-color="#96C" stop-opacity=".2"/>
    </linearGradient>
    <g mask="url(#bg-b)" opacity=".3" id="stars">
      <path fill="#96C" d="M127.326312,111.809013 C127.326312,111.299165 126.800012,110.881917 126.15494,110.881917 C125.510957,110.881917 124.984657,110.355728 124.984657,109.710792 C124.984657,109.066945 124.567321,108.540756 124.057366,108.540756 C123.54741,108.540756 123.130074,109.066945 123.130074,109.710792 C123.130074,110.355728 122.603774,110.881917 121.959791,110.881917 C121.314719,110.881917 120.788419,111.299165 120.788419,111.809013 C120.788419,112.318861 121.314719,112.736108 121.959791,112.736108 C122.603774,112.736108 123.130074,113.262298 123.130074,113.907234 C123.130074,114.55108 123.54741,115.07727 124.057366,115.07727 C124.567321,115.07727 124.984657,114.55108 124.984657,113.907234 C124.984657,113.262298 125.510957,112.736108 126.15494,112.736108 C126.800012,112.736108 127.326312,112.318861 127.326312,111.809013"/>
      <path fill="#FFB238" d="M141.486971,33.7345973 C141.486971,33.4106045 141.152523,33.1468411 140.743292,33.1468411 C140.334061,33.1468411 139.999613,32.812464 139.999613,32.4012424 C139.999613,31.9920977 139.733717,31.6577205 139.409656,31.6577205 C139.085595,31.6577205 138.819698,31.9920977 138.819698,32.4012424 C138.819698,32.812464 138.485251,33.1468411 138.07602,33.1468411 C137.666789,33.1468411 137.332341,33.4106045 137.332341,33.7345973 C137.332341,34.05859 137.666789,34.3223534 138.07602,34.3223534 C138.485251,34.3223534 138.819698,34.6567305 138.819698,35.0679521 C138.819698,35.4770969 139.085595,35.811474 139.409656,35.811474 C139.733717,35.811474 139.999613,35.4770969 139.999613,35.0679521 C139.999613,34.6567305 140.334061,34.3223534 140.743292,34.3223534 C141.152523,34.3223534 141.486971,34.05859 141.486971,33.7345973"/>
      <path fill="#B8A3CC" d="M155.775686 158.347202C155.775686 158.023209 155.441238 157.759446 155.032007 157.759446 154.622776 157.759446 154.288329 157.425069 154.288329 157.013847 154.288329 156.604702 154.022432 156.270325 153.698371 156.270325 153.37431 156.270325 153.108414 156.604702 153.108414 157.013847 153.108414 157.425069 152.773966 157.759446 152.364735 157.759446 151.955504 157.759446 151.621056 158.023209 151.621056 158.347202 151.621056 158.671195 151.955504 158.934958 152.364735 158.934958 152.773966 158.934958 153.108414 159.269335 153.108414 159.680557 153.108414 160.089702 153.37431 160.424079 153.698371 160.424079 154.022432 160.424079 154.288329 160.089702 154.288329 159.680557 154.288329 159.269335 154.622776 158.934958 155.032007 158.934958 155.441238 158.934958 155.775686 158.671195 155.775686 158.347202M245.010743 225.597419C244.601512 225.597419 244.267064 225.263041 244.267064 224.85182 244.267064 224.442675 244.001168 224.108298 243.677107 224.108298 243.353046 224.108298 243.087149 224.442675 243.087149 224.85182 243.087149 225.263041 242.752701 225.597419 242.34347 225.597419 241.934239 225.597419 241.599792 225.861182 241.599792 226.185175 241.599792 226.509167 241.934239 226.772931 242.34347 226.772931 242.752701 226.772931 243.087149 227.107308 243.087149 227.518529 243.087149 227.927674 243.353046 228.262051 243.677107 228.262051 244.001168 228.262051 244.267064 227.927674 244.267064 227.518529 244.267064 227.107308 244.601512 226.772931 245.010743 226.772931 245.419974 226.772931 245.754422 226.509167 245.754422 226.185175 245.754422 225.861182 245.419974 225.597419 245.010743 225.597419z"/>
      <path fill="#639" d="M112.58245,55.5418031 C112.58245,55.055814 112.07974,54.6570536 111.466932,54.6570536 C110.852046,54.6570536 110.349336,54.1565263 110.349336,53.5417708 C110.349336,52.9290922 109.952569,52.426488 109.466477,52.426488 C108.980385,52.426488 108.583618,52.9290922 108.583618,53.5417708 C108.583618,54.1565263 108.080908,54.6570536 107.466023,54.6570536 C106.853215,54.6570536 106.350504,55.055814 106.350504,55.5418031 C106.350504,56.0277923 106.853215,56.4265526 107.466023,56.4265526 C108.080908,56.4265526 108.583618,56.9270799 108.583618,57.5418354 C108.583618,58.1545141 108.980385,58.6571182 109.466477,58.6571182 C109.952569,58.6571182 110.349336,58.1545141 110.349336,57.5418354 C110.349336,56.9270799 110.852046,56.4265526 111.466932,56.4265526 C112.07974,56.4265526 112.58245,56.0277923 112.58245,55.5418031"/>
      <path fill="#B8A3CC" d="M96.8246944,151.078133 C96.8246944,150.592144 96.3219841,150.193384 95.7091761,150.193384 C95.0942908,150.193384 94.5915805,149.692857 94.5915805,149.078101 C94.5915805,148.465423 94.1948133,147.962818 93.7087216,147.962818 C93.2226298,147.962818 92.8258626,148.465423 92.8258626,149.078101 C92.8258626,149.692857 92.3231523,150.193384 91.708267,150.193384 C91.0954591,150.193384 90.5927488,150.592144 90.5927488,151.078133 C90.5927488,151.564123 91.0954591,151.962883 91.708267,151.962883 C92.3231523,151.962883 92.8258626,152.46341 92.8258626,153.078166 C92.8258626,153.690844 93.2226298,154.193449 93.7087216,154.193449 C94.1948133,154.193449 94.5915805,153.690844 94.5915805,153.078166 C94.5915805,152.46341 95.0942908,151.962883 95.7091761,151.962883 C96.3219841,151.962883 96.8246944,151.564123 96.8246944,151.078133"/>
      <path fill="#FFB238" d="M116.559189,79.4258857 C116.559189,79.1018929 116.224741,78.8381296 115.81551,78.8381296 C115.406279,78.8381296 115.071831,78.5037524 115.071831,78.0925308 C115.071831,77.6833861 114.805935,77.349009 114.481874,77.349009 C114.157812,77.349009 113.891916,77.6833861 113.891916,78.0925308 C113.891916,78.5037524 113.557468,78.8381296 113.148237,78.8381296 C112.739006,78.8381296 112.404558,79.1018929 112.404558,79.4258857 C112.404558,79.7498785 112.739006,80.0136418 113.148237,80.0136418 C113.557468,80.0136418 113.891916,80.348019 113.891916,80.7592406 C113.891916,81.1683853 114.157812,81.5027624 114.481874,81.5027624 C114.805935,81.5027624 115.071831,81.1683853 115.071831,80.7592406 C115.071831,80.348019 115.406279,80.0136418 115.81551,80.0136418 C116.224741,80.0136418 116.559189,79.7498785 116.559189,79.4258857 L-1.42108547e-13,0"/>
      <path fill="#B8A3CC" d="M91.6314064 183.269723C91.6314064 182.94573 91.2969586 182.681967 90.8877275 182.681967 90.4784964 182.681967 90.1440487 182.34759 90.1440487 181.936368 90.1440487 181.527223 89.8781524 181.192846 89.5540912 181.192846 89.23003 181.192846 88.9641337 181.527223 88.9641337 181.936368 88.9641337 182.34759 88.6296859 182.681967 88.2204548 182.681967 87.8112237 182.681967 87.476776 182.94573 87.476776 183.269723 87.476776 183.593716 87.8112237 183.857479 88.2204548 183.857479 88.6296859 183.857479 88.9641337 184.191856 88.9641337 184.603078 88.9641337 185.012223 89.23003 185.3466 89.5540912 185.3466 89.8781524 185.3466 90.1440487 185.012223 90.1440487 184.603078 90.1440487 184.191856 90.4784964 183.857479 90.8877275 183.857479 91.2969586 183.857479 91.6314064 183.593716 91.6314064 183.269723M116.559189 174.962216C116.559189 174.638223 116.224741 174.37446 115.81551 174.37446 115.406279 174.37446 115.071831 174.040083 115.071831 173.628861 115.071831 173.219716 114.805935 172.885339 114.481874 172.885339 114.157812 172.885339 113.891916 173.219716 113.891916 173.628861 113.891916 174.040083 113.557468 174.37446 113.148237 174.37446 112.739006 174.37446 112.404558 174.638223 112.404558 174.962216 112.404558 175.286209 112.739006 175.549972 113.148237 175.549972 113.557468 175.549972 113.891916 175.884349 113.891916 176.295571 113.891916 176.704716 114.157812 177.039093 114.481874 177.039093 114.805935 177.039093 115.071831 176.704716 115.071831 176.295571 115.071831 175.884349 115.406279 175.549972 115.81551 175.549972 116.224741 175.549972 116.559189 175.286209 116.559189 174.962216"/>
      <path fill="#FFB238" d="M72.9355696,149.001257 C72.9355696,148.83926 72.7673071,148.70634 72.5637302,148.70634 C72.358076,148.70634 72.1918907,148.538113 72.1918907,148.334579 C72.1918907,148.131045 72.0589426,147.962818 71.896912,147.962818 C71.7348814,147.962818 71.6019332,148.131045 71.6019332,148.334579 C71.6019332,148.538113 71.435748,148.70634 71.2300938,148.70634 C71.0265169,148.70634 70.8582544,148.83926 70.8582544,149.001257 C70.8582544,149.163253 71.0265169,149.296173 71.2300938,149.296173 C71.435748,149.296173 71.6019332,149.4644 71.6019332,149.667934 C71.6019332,149.871468 71.7348814,150.039695 71.896912,150.039695 C72.0589426,150.039695 72.1918907,149.871468 72.1918907,149.667934 C72.1918907,149.4644 72.358076,149.296173 72.5637302,149.296173 C72.7673071,149.296173 72.9355696,149.163253 72.9355696,149.001257"/>
    </g>
  </defs>
  <g fill="none" fill-rule="evenodd">
    <mask id="bg-b" fill="#fff">
      <use xlink:href="#bg-a"/>
    </mask>
    <use fill="#213" xlink:href="#bg-a"/>
    <g mask="url(#bg-b)">
      <g transform="translate(-46 -121)">
        <mask id="bg-e" fill="#fff">
          <use xlink:href="#bg-c"/>
        </mask>
        <use fill="url(#bg-d)" xlink:href="#bg-c"/>
        <g mask="url(#bg-e)">
          <g transform="translate(-83.244 72.687)">
            <path fill="url(#bg-f)" d="M771.846881,0 C801.244649,58.3057355 876.197545,173.696596 866.309703,236.448776 C860.798714,271.427975 854.266881,308.438753 827.385666,335.594129 C800.013917,363.246417 755.828377,375.614147 713.071053,378.257774 C670.31373,380.901401 540.650827,332.304931 497.841076,330.347081 C433.923843,327.423689 372.006973,326.719468 310.173009,340.593586 C286.944897,345.805596 263.845746,352.220495 239.853507,353.582455 C215.861871,354.94492 133.354143,349.855375 115.819615,336.066601 C88.937196,314.92718 88.9365934,279.609637 93.0579336,248.911245 C101.110788,188.9249 112.640175,126.261598 135.733903,69.0830022 C145.997179,43.670349 180.368397,29.7730015 212.382756,29.5573704 C244.397115,29.3417393 331.799348,40.4654197 361.805164,49.8218897 C391.810377,59.1783597 423.669259,67.7531039 455.317223,63.7005525 C476.092056,61.0402608 496.01478,52.9927271 517.012584,53.7224388 C541.266361,54.5657735 562.622725,66.9122941 586.026804,72.312161 C619.817696,80.1082093 656.53131,72.8570461 687.333794,58.8445607 C718.135072,44.8320754 744.083426,24.5294243 769.662974,4.45149411"/>
            <path fill="url(#bg-g)" fill-opacity=".8" d="M1159.56566,189.514904 C1212.55753,283.017839 1195.66157,389.292708 1177.83793,489.926254 C1167.90393,546.021213 1156.12977,605.374144 1107.6742,648.922302 C1058.3344,693.267339 978.686379,713.10105 901.612836,717.340545 C824.539293,721.58004 747.417954,712.396492 670.249904,709.256755 C555.033908,704.56861 438.821796,713.463857 327.36106,735.71331 C285.490504,744.071634 243.852411,754.35899 200.604455,756.543119 C157.357585,758.728059 111.111504,751.704345 79.5040947,729.591754 C31.046353,695.691181 31.0452667,639.053632 38.4743168,589.823659 C52.9902396,493.625588 -48.7906331,372.559862 31.1288655,305.479469 C111.048364,238.399077 195.858509,238.399077 253.566988,238.053276 C311.275467,237.707476 366.344292,254.407928 420.432208,269.412583 C474.519039,284.417237 531.947258,298.168264 588.99528,291.669324 C626.443602,287.403105 662.355928,274.497547 700.206172,275.667761 C743.925572,277.020188 782.422152,296.819886 824.609901,305.479469 C885.520725,317.981728 951.699994,306.353283 1007.22397,283.881935 C1062.74577,261.410586 1109.51978,228.851912 1155.62899,196.653615"/>
          </g>
        </g>
      </g>
    </g>
      <g transform="rotate(90 57.743 185.212)">
        <use xlink:href="#stars" />
      </g>
      <g transform="rotate(-90 404.262 43.092)">
        <use xlink:href="#stars" />
      </g>
      <g transform="rotate(90 73.911 125.547)">
        <use xlink:href="#stars" />
      </g>
      <g transform="rotate(-90 268.88 -31.908)">
        <use xlink:href="#stars" />
      </g>
  </g>
</svg>
